<svg width="380" height="128" viewBox="0 0 380 128" fill="none" xmlns="http://www.w3.org/2000/svg">
<g clip-path="url(#clip0_3_12)">
<path d="M49.78 95.85C46.0967 95.85 42.7533 94.9433 39.75 93.13C36.7467 91.26 34.3667 88.7383 32.61 85.565C30.91 82.3917 30.06 78.8217 30.06 74.855C30.06 70.8883 30.91 67.3183 32.61 64.145C34.3667 60.9717 36.7183 58.45 39.665 56.58C42.6683 54.71 46.04 53.775 49.78 53.775C52.84 53.775 55.56 54.4267 57.94 55.73C60.3767 56.9767 62.3317 58.7333 63.805 61C65.2783 63.21 66.1 65.7883 66.27 68.735V80.89C66.1 83.78 65.2783 86.3583 63.805 88.625C62.3883 90.8917 60.4617 92.6767 58.025 93.98C55.645 95.2267 52.8967 95.85 49.78 95.85ZM51.055 88.625C54.8517 88.625 57.9117 87.35 60.235 84.8C62.5583 82.1933 63.72 78.8783 63.72 74.855C63.72 72.0783 63.1817 69.67 62.105 67.63C61.085 65.5333 59.6117 63.9183 57.685 62.785C55.7583 61.595 53.52 61 50.97 61C48.42 61 46.1533 61.595 44.17 62.785C42.2433 63.975 40.7133 65.6183 39.58 67.715C38.5033 69.755 37.965 72.1067 37.965 74.77C37.965 77.49 38.5033 79.8983 39.58 81.995C40.7133 84.035 42.2717 85.65 44.255 86.84C46.2383 88.03 48.505 88.625 51.055 88.625ZM63.21 95V84.12L64.655 74.26L63.21 64.485V54.625H70.945V95H63.21ZM82.0827 95V54.625H89.7327V95H82.0827ZM89.7327 71.965L86.8427 70.69C86.8427 65.5333 88.0327 61.425 90.4127 58.365C92.7927 55.305 96.221 53.775 100.698 53.775C102.738 53.775 104.579 54.1433 106.223 54.88C107.866 55.56 109.396 56.7217 110.813 58.365L105.798 63.55C104.948 62.6433 104.013 61.9917 102.993 61.595C101.973 61.1983 100.783 61 99.4227 61C96.5893 61 94.266 61.9067 92.4527 63.72C90.6393 65.5333 89.7327 68.2817 89.7327 71.965ZM122.238 95V37.71H129.888V95H122.238ZM112.293 61.595V54.625H139.833V61.595H112.293ZM147.412 95V54.625H155.062V95H147.412ZM151.237 46.55C149.82 46.55 148.658 46.0967 147.752 45.19C146.845 44.2267 146.392 43.0367 146.392 41.62C146.392 40.26 146.845 39.1267 147.752 38.22C148.658 37.2567 149.82 36.775 151.237 36.775C152.653 36.775 153.815 37.2567 154.722 38.22C155.628 39.1267 156.082 40.26 156.082 41.62C156.082 43.0367 155.628 44.2267 154.722 45.19C153.815 46.0967 152.653 46.55 151.237 46.55ZM184.781 95.85C180.814 95.85 177.216 94.915 173.986 93.045C170.812 91.175 168.291 88.6533 166.421 85.48C164.607 82.25 163.701 78.68 163.701 74.77C163.701 70.8033 164.607 67.2333 166.421 64.06C168.291 60.8867 170.812 58.3933 173.986 56.58C177.216 54.71 180.814 53.775 184.781 53.775C187.897 53.775 190.787 54.37 193.451 55.56C196.114 56.6933 198.409 58.365 200.336 60.575L195.236 65.675C193.989 64.2017 192.459 63.0967 190.646 62.36C188.889 61.5667 186.934 61.17 184.781 61.17C182.231 61.17 179.964 61.765 177.981 62.955C175.997 64.0883 174.439 65.675 173.306 67.715C172.172 69.755 171.606 72.1067 171.606 74.77C171.606 77.4333 172.172 79.785 173.306 81.825C174.439 83.865 175.997 85.48 177.981 86.67C179.964 87.86 182.231 88.455 184.781 88.455C186.934 88.455 188.889 88.0867 190.646 87.35C192.459 86.5567 194.017 85.4233 195.321 83.95L200.336 89.05C198.466 91.2033 196.171 92.875 193.451 94.065C190.787 95.255 187.897 95.85 184.781 95.85ZM224.157 95.85C220.871 95.85 217.896 95.1133 215.233 93.64C212.626 92.11 210.586 90.0133 209.113 87.35C207.639 84.6867 206.903 81.5983 206.903 78.085V54.625H214.553V77.745C214.553 79.955 214.921 81.8817 215.658 83.525C216.451 85.1117 217.584 86.33 219.058 87.18C220.531 88.03 222.259 88.455 224.243 88.455C227.246 88.455 229.598 87.52 231.298 85.65C232.998 83.7233 233.848 81.0883 233.848 77.745V54.625H241.498V78.085C241.498 81.5983 240.761 84.6867 239.288 87.35C237.814 90.0133 235.774 92.11 233.168 93.64C230.618 95.1133 227.614 95.85 224.157 95.85ZM251.751 95V34.31H259.401V95H251.751ZM270.678 95V54.625H278.328V95H270.678ZM274.503 46.55C273.087 46.55 271.925 46.0967 271.018 45.19C270.112 44.2267 269.658 43.0367 269.658 41.62C269.658 40.26 270.112 39.1267 271.018 38.22C271.925 37.2567 273.087 36.775 274.503 36.775C275.92 36.775 277.082 37.2567 277.988 38.22C278.895 39.1267 279.348 40.26 279.348 41.62C279.348 43.0367 278.895 44.2267 277.988 45.19C277.082 46.0967 275.92 46.55 274.503 46.55ZM302.437 95.85C300.171 95.85 298.017 95.5667 295.977 95C293.994 94.3767 292.152 93.5267 290.452 92.45C288.752 91.3167 287.279 89.985 286.032 88.455L290.962 83.525C292.436 85.3383 294.136 86.6983 296.062 87.605C297.989 88.455 300.142 88.88 302.522 88.88C304.902 88.88 306.744 88.4833 308.047 87.69C309.351 86.84 310.002 85.6783 310.002 84.205C310.002 82.7317 309.464 81.5983 308.387 80.805C307.367 79.955 306.036 79.275 304.392 78.765C302.749 78.1983 300.992 77.66 299.122 77.15C297.309 76.5833 295.581 75.875 293.937 75.025C292.294 74.175 290.934 73.0133 289.857 71.54C288.837 70.0667 288.327 68.1117 288.327 65.675C288.327 63.2383 288.922 61.1417 290.112 59.385C291.302 57.5717 292.946 56.1833 295.042 55.22C297.196 54.2567 299.774 53.775 302.777 53.775C305.951 53.775 308.756 54.3417 311.192 55.475C313.686 56.5517 315.726 58.195 317.312 60.405L312.382 65.335C311.249 63.8617 309.832 62.7283 308.132 61.935C306.489 61.1417 304.619 60.745 302.522 60.745C300.312 60.745 298.612 61.1417 297.422 61.935C296.289 62.6717 295.722 63.72 295.722 65.08C295.722 66.44 296.232 67.4883 297.252 68.225C298.272 68.9617 299.604 69.585 301.247 70.095C302.947 70.605 304.704 71.1433 306.517 71.71C308.331 72.22 310.059 72.9283 311.702 73.835C313.346 74.7417 314.677 75.96 315.697 77.49C316.774 79.02 317.312 81.0317 317.312 83.525C317.312 87.3217 315.952 90.325 313.232 92.535C310.569 94.745 306.971 95.85 302.437 95.85ZM332.082 95V37.71H339.732V95H332.082ZM322.137 61.595V54.625H349.677V61.595H322.137Z" fill="url(#paint0_linear_3_12)"/>
</g>
<defs>
<linearGradient id="paint0_linear_3_12" x1="236" y1="10" x2="236" y2="117" gradientUnits="userSpaceOnUse">
<stop stop-color="#325DF6"/>
<stop offset="1" stop-color="#9849FC"/>
</linearGradient>
<clipPath id="clip0_3_12">
<rect width="380" height="128" rx="20" fill="white"/>
</clipPath>
</defs>
</svg>
